<svg id="Layer_1" data-name="Layer 1" xmlns="http://www.w3.org/2000/svg" viewBox="0 0 162.78 35.55"><defs><style>.cls-1{fill:#4caf4e;}.cls-2{fill:#babbbe;}.cls-3{fill:#fdfdfc;}.cls-4{fill:#f8f7f7;}.cls-5{fill:#f6f0e5;}.cls-6{fill:#fff;}</style></defs><title>logo final</title><path class="cls-1" d="M32.5,9.5A17.15,17.15,0,0,1,9.36,32.43a4.13,4.13,0,0,0-3.14-.24,6.24,6.24,0,0,0-3.73,3.19.32.32,0,0,1-.59-.07,17.55,17.55,0,0,1,0-9.21,1.7,1.7,0,0,0-.1-1.29h0A17.15,17.15,0,1,1,32.5,9.5Zm-3,4.9c.54-.15.67-.44.49-1a13.5,13.5,0,0,0-5.3-7.26,3.65,3.65,0,0,0-.5-.28,9.78,9.78,0,0,0-1.54.3,7.76,7.76,0,0,0-1.6.62A20.4,20.4,0,0,1,22.29,10a20.33,20.33,0,0,1,4.33,3.15c.63.58,1.21,1.15,1.7,1.65C28.7,14.62,29.09,14.51,29.48,14.4ZM28.58,24c.19-.29.21-.49-.09-.73-.6-.47-1.18-1-1.76-1.47a28.27,28.27,0,0,1-3.64,1.86,18.19,18.19,0,0,1-2.25.79,3.16,3.16,0,0,0-.71,1.17c-.23.33-.47.65-.69,1a8,8,0,0,0-.44.69,5.34,5.34,0,0,0,3.11,2.17A13.29,13.29,0,0,0,28.58,24Zm-1.21-7.89a.21.21,0,0,0,0-.11l-.58-.6A23.71,23.71,0,0,0,22,11.51a1.8,1.8,0,0,0-.4.15c-1,.48-2,.89-3,1.33L17,19.9c1.22,1,2.42,2,3.63,3a21.94,21.94,0,0,0,4.53-2c.68-.37,1.24-.72,1.63-1,0-.1.06-.19.08-.29A18.79,18.79,0,0,0,27.37,16.06ZM19.82,5.75a8.87,8.87,0,0,1,2.11-1A12.7,12.7,0,0,0,15.41,4a13.8,13.8,0,0,1,1.64,1.62l0,0a2.76,2.76,0,0,0,1.26.06,6.36,6.36,0,0,1,.87,0A2,2,0,0,0,19.82,5.75Zm0,24.32a6.43,6.43,0,0,1-2.24-2.21h-.08a11.46,11.46,0,0,1-4.23-.57,9.64,9.64,0,0,1-2.45,1.39A13.31,13.31,0,0,0,19.86,30.07ZM15.54,19.64l1.6-6.79A24,24,0,0,0,14,10a14.4,14.4,0,0,0-6.12,3.27L7.2,15.63c0,.25,0,.5,0,.79a4.12,4.12,0,0,0,.09.83,12.28,12.28,0,0,0,4.36,3.83.79.79,0,0,0,.24,0C13.09,20.55,14.32,20.1,15.54,19.64ZM15.33,6.32a2.39,2.39,0,0,0,.13-.21,8.67,8.67,0,0,0-2.07-1.65A13.13,13.13,0,0,0,6.6,9.25c-.21.27-.13.42.08.61A14,14,0,0,1,8,11.1l0,0a17.15,17.15,0,0,1,5.43-2.55A13,13,0,0,0,15.33,6.32ZM12.2,26.25l-.06-.09a18.9,18.9,0,0,1-.81-3.54,14,14,0,0,1-5.11-4.26c-.54.27-1.09.52-1.65.76-.27.12-.38.27-.28.56s.12.43.18.64a2.44,2.44,0,0,0,0,.39,12.35,12.35,0,0,0,3.17,5.52,9.07,9.07,0,0,0,1.53,1.41A8.83,8.83,0,0,0,12.2,26.25Z"/><path class="cls-2" d="M30,13.41c.18.55.05.84-.49,1s-.78.22-1.16.35c-.49-.5-1.07-1.07-1.7-1.65v0a11.51,11.51,0,0,0-3.26-6.29c-.23-.22-.49-.41-.73-.62a9.78,9.78,0,0,1,1.54-.3,3.65,3.65,0,0,1,.5.28A13.5,13.5,0,0,1,30,13.41Z"/><path class="cls-2" d="M28.49,23.22c.3.24.28.44.09.73a13.29,13.29,0,0,1-6.47,5.46A5.34,5.34,0,0,1,19,27.24a8,8,0,0,1,.44-.69c.22-.33.46-.65.69-1a8.46,8.46,0,0,0,3-2,28.27,28.27,0,0,0,3.64-1.86C27.31,22.25,27.89,22.75,28.49,23.22Z"/><path class="cls-2" d="M27.37,16.06a18.79,18.79,0,0,1-.48,3.58c0,.1-.05.19-.08.29-.39.25-.95.6-1.63,1a13.28,13.28,0,0,0,.7-1.28,14.36,14.36,0,0,0,.91-4.27l.58.6A.21.21,0,0,1,27.37,16.06Z"/><path class="cls-3" d="M26.79,15.35a14.36,14.36,0,0,1-.91,4.27,13.28,13.28,0,0,1-.7,1.28,21.94,21.94,0,0,1-4.53,2c-1.21-1-2.41-2-3.63-3L18.65,13c1-.44,2-.85,3-1.33a1.8,1.8,0,0,1,.4-.15A23.71,23.71,0,0,1,26.79,15.35Z"/><path class="cls-4" d="M23.36,6.79a11.51,11.51,0,0,1,3.26,6.29v0A20.33,20.33,0,0,0,22.29,10,20.4,20.4,0,0,0,21,6.79a7.76,7.76,0,0,1,1.6-.62C22.87,6.38,23.13,6.57,23.36,6.79Z"/><path class="cls-4" d="M23.09,23.61a8.46,8.46,0,0,1-3,2,3.16,3.16,0,0,1,.71-1.17A18.19,18.19,0,0,0,23.09,23.61Z"/><path class="cls-5" d="M21.93,4.8a8.87,8.87,0,0,0-2.11,1,2,2,0,0,1-.6,0,6.36,6.36,0,0,0-.87,0,2.76,2.76,0,0,1-1.26-.06l0,0A13.8,13.8,0,0,0,15.41,4,12.7,12.7,0,0,1,21.93,4.8Z"/><path class="cls-2" d="M17.62,27.86a6.43,6.43,0,0,0,2.24,2.21,13.31,13.31,0,0,1-9-1.39,9.64,9.64,0,0,0,2.45-1.39,11.46,11.46,0,0,0,4.23.57Z"/><path class="cls-3" d="M17.14,12.85l-1.6,6.79c-1.22.46-2.45.91-3.66,1.39a.79.79,0,0,1-.24,0,12.28,12.28,0,0,1-4.36-3.83,4.12,4.12,0,0,1-.09-.83c0-.29,0-.54,0-.79l.63-2.35A14.4,14.4,0,0,1,14,10,24,24,0,0,1,17.14,12.85Z"/><path class="cls-4" d="M15.46,6.11a2.39,2.39,0,0,1-.13.21,13,13,0,0,1-1.88,2.27A17.15,17.15,0,0,0,8,11.14l0,0A14,14,0,0,0,6.68,9.86c-.21-.19-.29-.34-.08-.61a13.13,13.13,0,0,1,6.79-4.79A8.67,8.67,0,0,1,15.46,6.11Z"/><path class="cls-4" d="M12.14,26.16c-.19.28-.41.1-.6,0a11.75,11.75,0,0,1-6.69-5.45c-.1-.18-.14-.38-.38-.43-.06-.21-.11-.43-.18-.64s0-.44.28-.56c.56-.24,1.11-.49,1.65-.76a14,14,0,0,0,5.11,4.26A18.9,18.9,0,0,0,12.14,26.16Z"/><path class="cls-2" d="M4.85,20.75a11.75,11.75,0,0,0,6.69,5.45c.19.06.41.24.6,0l.06.09a8.83,8.83,0,0,1-3,1.39,9.07,9.07,0,0,1-1.53-1.41,12.35,12.35,0,0,1-3.17-5.52,2.44,2.44,0,0,1,0-.39C4.71,20.37,4.75,20.57,4.85,20.75Z"/><path class="cls-6" d="M47.87,13l.41,1.89a1.45,1.45,0,0,1-.49,1.13,1.61,1.61,0,0,1-1.12.44,1,1,0,0,1-1-.6,3,3,0,0,1-.3-1.33,5.29,5.29,0,0,1,1.87-3.92,6.08,6.08,0,0,1,4.24-1.75h.24c.54-2,1.34-3.05,2.41-3.05.33,0,.49.43.49,1.28,0,.17,0,.81-.12,1.93.4.06.87.12,1.4.21a23.23,23.23,0,0,0,3.16.28,8.1,8.1,0,0,0,2.57-.43,7.27,7.27,0,0,1,1.75-.42,1,1,0,0,1,1.12,1.15,1.86,1.86,0,0,1-1.2,1.73,8.45,8.45,0,0,1-3.5.58,19,19,0,0,1-5.59-1.05c-.32,1.85-.5,3.25-.56,4.18s-.11,2.33-.16,4.18c1.13-.05,2.68-.08,4.66-.08a1.23,1.23,0,0,1,.91.41,1.2,1.2,0,0,1,.38.84,1,1,0,0,1-.28.72.84.84,0,0,1-.6.28l-5.11-.28c-.11,2.63-.19,4.41-.26,5.35a6.2,6.2,0,0,1-.78,2.61c-.46.8-1,1.21-1.61,1.21A1.81,1.81,0,0,1,49.7,30a1.47,1.47,0,0,1-.62-1,1.62,1.62,0,0,1,.14-.74,5,5,0,0,1,.32-.53,2.86,2.86,0,0,0,.26-.42,23.69,23.69,0,0,0,.89-5.75l-1.57.2a.66.66,0,0,1-.52-.22.71.71,0,0,1-.2-.52,1.19,1.19,0,0,1,.12-.54.83.83,0,0,1,.48-.38,2.93,2.93,0,0,1,.52-.18,5.19,5.19,0,0,1,1.29-.17c0-.64.13-2,.22-4.18a46.88,46.88,0,0,1,.42-5,4.35,4.35,0,0,0-.72,0C48.83,10.46,47.87,11.32,47.87,13Z"/><path class="cls-6" d="M72.83,29.35a3.74,3.74,0,0,1-2.37-.64,2.28,2.28,0,0,1-.28-1.43c0-.76,0-1.79.08-3.07a15.56,15.56,0,0,1-2.07,3.87,3.22,3.22,0,0,1-2.63,1.27,3.52,3.52,0,0,1-2.81-1.51,7.5,7.5,0,0,1-1.21-4.74,9.44,9.44,0,0,1,1.83-5.73,5.69,5.69,0,0,1,4.8-2.49,4.35,4.35,0,0,1,2.89,1.69,6.21,6.21,0,0,1,1.15-1.07,2.55,2.55,0,0,1,1.41-.62c.38,0,.58.51.58,1.53A10.12,10.12,0,0,1,74,18a6.59,6.59,0,0,1-.5,1.68c-.24.62-.37,2.8-.37,6.56,0,.72.08,1.08.25,1.08.45,0,1.08-.59,1.88-1.71a24.55,24.55,0,0,0,2.4-4.28q1.19-2.61,1.44-2.61c.18,0,.26.11.26.32a9.72,9.72,0,0,1-1.16,3.58Q75,29.35,72.83,29.35Zm-4.9-12.86c-.75,0-1.55.56-2.39,1.67a6.27,6.27,0,0,0-1.27,3.92,8.73,8.73,0,0,0,.67,3.69c.44,1,1,1.45,1.74,1.45q1.33,0,3.9-6.63c0-.22.06-.58.1-1.11s.08-.91.1-1.18a3.71,3.71,0,0,0-1.26-1.23A3,3,0,0,0,67.93,16.49Z"/><path class="cls-6" d="M80.07,27l0,1.25c0,.75-.22,1.12-.65,1.12a6.55,6.55,0,0,1-1.84-.26c-.59-.17-.89-.42-.89-.72s.08-1.37.22-3.18.22-3.17.22-4.08V18.74a3.93,3.93,0,0,1,.41-2.33A13.28,13.28,0,0,1,79,15.24a3.26,3.26,0,0,1,1.49-.76c.31,0,.5,0,.58.16a1.08,1.08,0,0,1,.12.6,10.27,10.27,0,0,1-.8,4c-.14,1.53-.2,2.59-.2,3.18.1-.16.67-1.07,1.69-2.74a24.19,24.19,0,0,1,2.59-3.65,2.85,2.85,0,0,1,1.91-1.17,2.27,2.27,0,0,1,1.5.56,1.77,1.77,0,0,1,.67,1.41c0,1.18-.13,2.92-.38,5.21s-.39,3.73-.39,4.34.08.9.25.9c.45,0,1.08-.59,1.88-1.71a24.55,24.55,0,0,0,2.4-4.28q1.18-2.61,1.44-2.61c.18,0,.26.11.26.32a9.72,9.72,0,0,1-1.16,3.58q-3.18,6.75-5.35,6.75a3.74,3.74,0,0,1-2.37-.64,2.37,2.37,0,0,1-.28-1.47c0-.79.07-2.08.22-3.86s.22-3.11.22-4-.15-1.32-.46-1.32-1.12.92-2.43,2.75a13.29,13.29,0,0,0-2.09,3.52A15.8,15.8,0,0,0,80.07,27Z"/><path class="cls-6" d="M97.79,16.85l.08-.6c0-.48-.27-.73-.82-.73a2.08,2.08,0,0,0-1.59,1.07,3.27,3.27,0,0,0-.76,1.75,5.22,5.22,0,0,0,.08,1.08,3.74,3.74,0,0,0,.18.67,3.05,3.05,0,0,0,.34.62c.16.24.28.42.36.52l.44.56a3.81,3.81,0,0,0,.41.53q2.08-1.72,5-3.86a.6.6,0,0,1,.36-.12c.27,0,.4.15.4.44a.76.76,0,0,1-.36.68A45.77,45.77,0,0,0,97,23a4.87,4.87,0,0,1,.88,2.81,3.48,3.48,0,0,1-1.16,2.62,4.22,4.22,0,0,1-3,1.08c-1.2,0-1.81-.57-1.81-1.73q0-1.25,2.66-3.81c-.14-.17-.38-.43-.73-.79s-.61-.65-.78-.86-.38-.5-.62-.85a3.94,3.94,0,0,1-.65-2.17,5.08,5.08,0,0,1,1.53-3.84A4.68,4.68,0,0,1,96.63,14a2.3,2.3,0,0,1,1.68.58,1.65,1.65,0,0,1,.61,1.19c0,.91-.22,1.36-.65,1.36S97.79,17.07,97.79,16.85Zm-2.57,7.92c-1.07,1.07-1.61,1.94-1.61,2.59a.89.89,0,0,0,1,1,1.24,1.24,0,0,0,1-.49C96.21,27.06,96.08,26,95.22,24.77Z"/><path class="cls-6" d="M124.68,22.52a14.47,14.47,0,0,0,.8-1.41c.86-1.53,1.38-2.29,1.55-2.29s.26.11.26.32q0,2-2.05,5a11.39,11.39,0,0,1-9.85,5.42,6.63,6.63,0,0,1-5.46-2.85,9.3,9.3,0,0,1-1.73-5.31q0-7,3.64-11.27a11,11,0,0,1,8.62-4.28,4.41,4.41,0,0,1,3.09,1.1,3.62,3.62,0,0,1,1.21,2.8,6.12,6.12,0,0,1-.84,3.13,2.41,2.41,0,0,1-2,1.45c-.8,0-1.19-.21-1.19-.64a2.71,2.71,0,0,1,.78-1.65,2.84,2.84,0,0,0,.79-1.85c0-1.9-1-2.85-3-2.85s-3.85,1.35-5.48,4.06a15.91,15.91,0,0,0-2.46,8.36A8.76,8.76,0,0,0,113,25a5.55,5.55,0,0,0,4.75,2.31C120.14,27.34,122.45,25.73,124.68,22.52Z"/><path class="cls-6" d="M127.69,29.35a5.64,5.64,0,0,1-1.63-.22,2.17,2.17,0,0,1-.9-.42c-.27-.32-.4-2-.4-5a100.85,100.85,0,0,1,1-12.27Q126.62,5,129.7,5a1.1,1.1,0,0,1,1.05.78,4,4,0,0,1,.32,1.51A26.92,26.92,0,0,1,127.89,19c-.08,2.23-.12,4.16-.12,5.81s.15,2.47.45,2.47c.45,0,1.08-.59,1.88-1.71a25.22,25.22,0,0,0,2.4-4.28q1.19-2.61,1.44-2.61c.18,0,.26.11.26.32A9.92,9.92,0,0,1,133,22.6Q129.86,29.35,127.69,29.35Zm2.37-21.66c0-.86-.1-1.29-.32-1.29q-1.2,0-1.77,10A26.26,26.26,0,0,0,130.06,7.69Z"/><path class="cls-6" d="M131.79,25.65l.24-4.5c0-2.86.14-4.43.4-4.7a17.8,17.8,0,0,1,1.43-1.19,3.11,3.11,0,0,1,1.49-.78c.31,0,.5,0,.58.16a1.17,1.17,0,0,1,.12.64,8.74,8.74,0,0,1-.76,3.5,39.48,39.48,0,0,0-.6,6.07c0,1.58.25,2.37.76,2.37s1.34-.53,2.17-1.61a19.72,19.72,0,0,0,2.49-4.78,23.1,23.1,0,0,1,.58-4.34,11.32,11.32,0,0,1,1.11-1.17,2.45,2.45,0,0,1,1.47-.84c.38,0,.58.51.58,1.53a11.32,11.32,0,0,1-.22,1.56,6.69,6.69,0,0,1-.5,1.69q-.45,1.13-.45,7,0,1.08.24,1.08c.46,0,1.09-.59,1.89-1.71a24.57,24.57,0,0,0,2.39-4.28c.79-1.74,1.28-2.61,1.45-2.61s.26.11.26.32a9.92,9.92,0,0,1-1.16,3.58q-3.18,6.75-5.35,6.75a3.74,3.74,0,0,1-2.37-.64,3,3,0,0,1-.28-1.73c0-1,0-2,.12-3.22a17.41,17.41,0,0,1-2.57,4.16,3.8,3.8,0,0,1-2.88,1.43,2.31,2.31,0,0,1-2.11-.84A5.87,5.87,0,0,1,131.79,25.65Z"/><path class="cls-6" d="M154,15.28A3.91,3.91,0,0,1,157,16.63a5.58,5.58,0,0,1,1.25,3.76,14.47,14.47,0,0,0,2.91-1.17,13.07,13.07,0,0,1,1.35-.68c.16,0,.24.13.24.4s-.38.68-1.15,1.25a14.7,14.7,0,0,1-3.43,1.69,8.18,8.18,0,0,1-2.9,5.52,7.65,7.65,0,0,1-4.82,2,3.18,3.18,0,0,1-3.22-1.79,14.76,14.76,0,0,1-.8-5.64A46.17,46.17,0,0,1,147,14.6a23.2,23.2,0,0,1,1.45-5.45A12,12,0,0,1,150.3,6.1,2.56,2.56,0,0,1,152.09,5c.27,0,.51.32.74,1a7.07,7.07,0,0,1,.34,2.37,28.14,28.14,0,0,1-1.12,7.24A4.88,4.88,0,0,1,154,15.28Zm-1.77-6.19c0-1.12-.15-1.68-.44-1.68s-.53.58-.87,1.74A37.16,37.16,0,0,0,150,13.9a42.55,42.55,0,0,0-.42,5.93Q152.2,12.32,152.21,9.09Zm3.58,13.43a13,13,0,0,1-1.35,0,4.7,4.7,0,0,1-2.25-.7,3.57,3.57,0,0,1-1.67-1.95,18,18,0,0,1-.92,1.93,18.27,18.27,0,0,0,.48,4.38c.27.88.69,1.32,1.28,1.32a4.17,4.17,0,0,0,2.76-1.18A5.93,5.93,0,0,0,155.79,22.52Zm-2.46-5.79a1.25,1.25,0,0,0-.9.34,1.22,1.22,0,0,0-.34.91,2.5,2.5,0,0,0,1.1,2.07,4.36,4.36,0,0,0,2.68.82,7,7,0,0,0-.65-2.89A2,2,0,0,0,153.33,16.73Z"/></svg>