<svg id="Layer_1" data-name="Layer 1" xmlns="http://www.w3.org/2000/svg" viewBox="0 0 117.36 25.48"><defs><style>.cls-1{fill:#fff;}</style></defs><title>logo final</title><path class="cls-1" d="M2.45,8l.4,1.89A1.45,1.45,0,0,1,2.37,11a1.59,1.59,0,0,1-1.12.44,1,1,0,0,1-.95-.6A2.91,2.91,0,0,1,0,9.53,5.24,5.24,0,0,1,1.87,5.61,6,6,0,0,1,6.11,3.86h.24C6.89,1.82,7.69.8,8.76.8q.48,0,.48,1.29c0,.16,0,.8-.12,1.93l1.41.2a21.72,21.72,0,0,0,3.16.28,8.37,8.37,0,0,0,2.57-.42A7.27,7.27,0,0,1,18,3.66,1,1,0,0,1,19.13,4.8a1.85,1.85,0,0,1-1.2,1.73,8.29,8.29,0,0,1-3.5.58,19,19,0,0,1-5.59-1,39.3,39.3,0,0,0-.56,4.18c0,.94-.11,2.33-.16,4.18,1.12,0,2.68-.08,4.66-.08a1.21,1.21,0,0,1,.91.4,1.24,1.24,0,0,1,.38.84,1,1,0,0,1-.28.73.84.84,0,0,1-.61.28l-5.1-.28c-.11,2.62-.2,4.41-.26,5.34A6.15,6.15,0,0,1,7,24.28a1.92,1.92,0,0,1-1.6,1.2,1.84,1.84,0,0,1-1.15-.54,1.43,1.43,0,0,1-.62-1,1.5,1.5,0,0,1,.14-.74,4.87,4.87,0,0,1,.32-.52,4.56,4.56,0,0,0,.26-.42,24.34,24.34,0,0,0,.89-5.75l-1.57.2a.65.65,0,0,1-.52-.22A.73.73,0,0,1,3,15.94a1.2,1.2,0,0,1,.12-.55A.94.94,0,0,1,3.58,15l.52-.18a5.18,5.18,0,0,1,1.29-.16c.05-.64.12-2,.22-4.18a46.64,46.64,0,0,1,.42-5,4.35,4.35,0,0,0-.72,0C3.4,5.43,2.45,6.28,2.45,8Z"/><path class="cls-1" d="M27.41,24.32A3.72,3.72,0,0,1,25,23.67a2.23,2.23,0,0,1-.28-1.42c0-.77,0-1.79.08-3.08a15.66,15.66,0,0,1-2.07,3.88,3.26,3.26,0,0,1-2.63,1.27,3.56,3.56,0,0,1-2.82-1.51,7.61,7.61,0,0,1-1.2-4.74A9.42,9.42,0,0,1,18,12.34a5.66,5.66,0,0,1,4.8-2.49,4.37,4.37,0,0,1,2.89,1.68,6.23,6.23,0,0,1,1.15-1.06,2.48,2.48,0,0,1,1.4-.62c.39,0,.59.51.59,1.52a11.6,11.6,0,0,1-.22,1.57,6.24,6.24,0,0,1-.51,1.69q-.36.93-.36,6.55c0,.72.08,1.09.24,1.09q.69,0,1.89-1.71a24.57,24.57,0,0,0,2.39-4.28c.79-1.74,1.28-2.61,1.45-2.61s.26.1.26.32a9.83,9.83,0,0,1-1.16,3.57Q29.58,24.33,27.41,24.32Zm-4.9-12.87c-.75,0-1.55.56-2.39,1.67A6.27,6.27,0,0,0,18.85,17a9,9,0,0,0,.66,3.7c.44,1,1,1.45,1.75,1.45.89,0,2.18-2.21,3.9-6.64,0-.21.06-.58.1-1.1s.07-.92.1-1.19A3.64,3.64,0,0,0,24.09,12,3,3,0,0,0,22.51,11.45Z"/><path class="cls-1" d="M34.64,21.94l0,1.25c0,.75-.21,1.13-.64,1.13a6.32,6.32,0,0,1-1.85-.27c-.59-.17-.88-.41-.88-.72s.07-1.37.22-3.17.22-3.17.22-4.08V13.71a4,4,0,0,1,.4-2.34,17,17,0,0,1,1.43-1.16,3.16,3.16,0,0,1,1.49-.77c.3,0,.5.06.58.17a1,1,0,0,1,.12.6,10.27,10.27,0,0,1-.8,4c-.14,1.53-.2,2.58-.2,3.17l1.68-2.73A25.61,25.61,0,0,1,39.05,11,2.88,2.88,0,0,1,41,9.85a2.23,2.23,0,0,1,1.51.56,1.79,1.79,0,0,1,.67,1.41,50.11,50.11,0,0,1-.39,5.2c-.25,2.29-.38,3.74-.38,4.34s.08.91.24.91q.69,0,1.89-1.71a24.57,24.57,0,0,0,2.39-4.28c.79-1.74,1.28-2.61,1.45-2.61s.26.1.26.32a9.83,9.83,0,0,1-1.16,3.57q-3.18,6.77-5.35,6.76a3.72,3.72,0,0,1-2.37-.65c-.19-.18-.28-.67-.28-1.46s.07-2.08.22-3.86.22-3.12.22-4S39.72,13,39.41,13s-1.12.92-2.43,2.76a12.85,12.85,0,0,0-2.09,3.51A15.86,15.86,0,0,0,34.64,21.94Z"/><path class="cls-1" d="M52.37,11.82l.08-.61c0-.48-.28-.72-.82-.72A2.08,2.08,0,0,0,50,11.56a3.31,3.31,0,0,0-.77,1.74,6.15,6.15,0,0,0,.08,1.09,4.18,4.18,0,0,0,.19.66,2.81,2.81,0,0,0,.34.62c.16.25.28.42.36.53l.44.56a4.7,4.7,0,0,0,.4.52q2.1-1.73,5-3.86a.56.56,0,0,1,.36-.12c.27,0,.4.15.4.45a.77.77,0,0,1-.36.68A44.77,44.77,0,0,0,51.61,18a4.9,4.9,0,0,1,.88,2.81,3.42,3.42,0,0,1-1.17,2.61,4.14,4.14,0,0,1-3,1.09c-1.21,0-1.81-.58-1.81-1.73,0-.83.89-2.1,2.65-3.82q-.19-.24-.72-.78c-.35-.37-.61-.65-.78-.87a10.1,10.1,0,0,1-.63-.84,3.93,3.93,0,0,1-.64-2.17A5.08,5.08,0,0,1,48,10.47,4.64,4.64,0,0,1,51.2,9a2.32,2.32,0,0,1,1.69.59,1.65,1.65,0,0,1,.6,1.18c0,.91-.21,1.37-.64,1.37S52.37,12,52.37,11.82ZM49.8,19.73c-1.08,1.08-1.61,1.94-1.61,2.6a.88.88,0,0,0,1,1,1.26,1.26,0,0,0,1-.48C50.79,22,50.65,21,49.8,19.73Z"/><path class="cls-1" d="M79.26,17.48a14.89,14.89,0,0,0,.8-1.4c.86-1.53,1.37-2.29,1.55-2.29s.26.1.26.32c0,1.31-.69,3-2.05,5A11.39,11.39,0,0,1,70,24.52a6.67,6.67,0,0,1-5.46-2.86,9.18,9.18,0,0,1-1.73-5.3q0-7,3.63-11.28A11,11,0,0,1,75,.8a4.39,4.39,0,0,1,3.09,1.11A3.65,3.65,0,0,1,79.34,4.7a6.17,6.17,0,0,1-.85,3.14,2.4,2.4,0,0,1-2,1.44c-.79,0-1.18-.21-1.18-.64A2.73,2.73,0,0,1,76.06,7a2.86,2.86,0,0,0,.78-1.85q0-2.85-3-2.85T68.32,6.35a16,16,0,0,0-2.45,8.36A8.74,8.74,0,0,0,67.56,20a5.54,5.54,0,0,0,4.74,2.31Q75.91,22.31,79.26,17.48Z"/><path class="cls-1" d="M82.27,24.32a5.63,5.63,0,0,1-1.63-.23,1.89,1.89,0,0,1-.9-.42c-.27-.32-.4-2-.4-5a100.84,100.84,0,0,1,1-12.28C80.9,2.13,82.22,0,84.28,0a1.08,1.08,0,0,1,1,.78,3.93,3.93,0,0,1,.33,1.51A27,27,0,0,1,82.47,14c-.08,2.22-.12,4.16-.12,5.8s.15,2.48.44,2.48q.69,0,1.89-1.71a24.57,24.57,0,0,0,2.39-4.28c.79-1.74,1.27-2.61,1.45-2.61s.26.1.26.32a9.83,9.83,0,0,1-1.16,3.57Q84.44,24.33,82.27,24.32ZM84.64,2.65c0-.85-.11-1.28-.32-1.28q-1.2,0-1.77,10A26.46,26.46,0,0,0,84.64,2.65Z"/><path class="cls-1" d="M86.37,20.62l.24-4.5c0-2.87.13-4.44.4-4.71a18.26,18.26,0,0,1,1.43-1.18,3.16,3.16,0,0,1,1.49-.79c.3,0,.5.06.58.17a1.15,1.15,0,0,1,.12.64,9,9,0,0,1-.76,3.5,38.23,38.23,0,0,0-.61,6.06c0,1.59.26,2.38.77,2.38s1.34-.54,2.17-1.61a19.91,19.91,0,0,0,2.49-4.78,22.5,22.5,0,0,1,.58-4.35,10.57,10.57,0,0,1,1.11-1.16,2.46,2.46,0,0,1,1.46-.85c.39,0,.59.51.59,1.53a11.6,11.6,0,0,1-.22,1.57,6.24,6.24,0,0,1-.51,1.69q-.44,1.13-.44,7c0,.72.08,1.09.24,1.09q.69,0,1.89-1.71a25.24,25.24,0,0,0,2.39-4.28c.79-1.74,1.27-2.61,1.45-2.61s.26.1.26.32a9.7,9.7,0,0,1-1.17,3.57Q99.16,24.33,97,24.32a3.7,3.7,0,0,1-2.37-.65c-.19-.18-.28-.76-.28-1.73s0-2,.12-3.21a17.28,17.28,0,0,1-2.58,4.16A3.8,3.8,0,0,1,89,24.32a2.3,2.3,0,0,1-2.11-.85A5.68,5.68,0,0,1,86.37,20.62Z"/><path class="cls-1" d="M108.55,10.25a3.93,3.93,0,0,1,3.06,1.35,5.54,5.54,0,0,1,1.24,3.75,15.45,15.45,0,0,0,2.92-1.16,12.72,12.72,0,0,1,1.34-.69c.17,0,.25.14.25.41s-.39.68-1.15,1.24a14.22,14.22,0,0,1-3.44,1.69,8.17,8.17,0,0,1-2.89,5.53,7.69,7.69,0,0,1-4.82,1.95,3.18,3.18,0,0,1-3.22-1.79,14.82,14.82,0,0,1-.8-5.65,46,46,0,0,1,.56-7.31,23.06,23.06,0,0,1,1.45-5.45,11.87,11.87,0,0,1,1.83-3A2.56,2.56,0,0,1,106.66,0q.41,0,.75,1a7.18,7.18,0,0,1,.34,2.38,28.13,28.13,0,0,1-1.13,7.23A5.12,5.12,0,0,1,108.55,10.25Zm-1.76-6.19c0-1.13-.15-1.69-.45-1.69s-.53.58-.86,1.75a37.05,37.05,0,0,0-.93,4.74,42.66,42.66,0,0,0-.42,5.93Q106.79,7.28,106.79,4.06Zm3.57,13.42a12.68,12.68,0,0,1-1.34,0,4.53,4.53,0,0,1-2.25-.7,3.57,3.57,0,0,1-1.67-2,16.33,16.33,0,0,1-.93,1.93,18.54,18.54,0,0,0,.49,4.38c.26.89.69,1.33,1.28,1.33a4.14,4.14,0,0,0,2.75-1.19A5.84,5.84,0,0,0,110.36,17.48Zm-2.45-5.78a1.2,1.2,0,0,0-.9.34,1.22,1.22,0,0,0-.35.9A2.49,2.49,0,0,0,107.77,15a4.35,4.35,0,0,0,2.67.83,6.92,6.92,0,0,0-.64-2.9A2,2,0,0,0,107.91,11.7Z"/></svg>