<svg id="Layer_1" data-name="Layer 1" xmlns="http://www.w3.org/2000/svg" viewBox="0 0 34.31 35.55"><defs><style>.cls-1{fill:#4caf4e;}.cls-2{fill:#babbbe;}.cls-3{fill:#f8f7f7;}.cls-4{fill:#fdfdfc;}.cls-5{fill:#f6f0e5;}</style></defs><title>logo final</title><path class="cls-1" d="M32.5,9.5A17.15,17.15,0,0,1,9.36,32.43a4.13,4.13,0,0,0-3.14-.24,6.24,6.24,0,0,0-3.73,3.19.32.32,0,0,1-.59-.07,17.55,17.55,0,0,1,0-9.21,1.7,1.7,0,0,0-.1-1.29h0A17.15,17.15,0,1,1,32.5,9.5Zm-3,4.9c.54-.15.67-.44.49-1a13.5,13.5,0,0,0-5.3-7.26,3.65,3.65,0,0,0-.5-.28,9.78,9.78,0,0,0-1.54.3,7.76,7.76,0,0,0-1.6.62A20.4,20.4,0,0,1,22.29,10a20.33,20.33,0,0,1,4.33,3.15c.63.58,1.21,1.15,1.7,1.65C28.7,14.62,29.09,14.51,29.48,14.4ZM28.58,24c.19-.29.21-.49-.09-.73-.6-.47-1.18-1-1.76-1.47a28.27,28.27,0,0,1-3.64,1.86,18.19,18.19,0,0,1-2.25.79,3.16,3.16,0,0,0-.71,1.17c-.23.33-.47.65-.69,1a8,8,0,0,0-.44.69,5.34,5.34,0,0,0,3.11,2.17A13.29,13.29,0,0,0,28.58,24Zm-1.21-7.89a.21.21,0,0,0,0-.11l-.58-.6A23.71,23.71,0,0,0,22,11.51a1.8,1.8,0,0,0-.4.15c-1,.48-2,.89-3,1.33L17,19.9c1.22,1,2.42,2,3.63,3a21.94,21.94,0,0,0,4.53-2c.68-.37,1.24-.72,1.63-1,0-.1.06-.19.08-.29A18.79,18.79,0,0,0,27.37,16.06ZM19.82,5.75a8.87,8.87,0,0,1,2.11-1A12.7,12.7,0,0,0,15.41,4a13.8,13.8,0,0,1,1.64,1.62l0,0a2.76,2.76,0,0,0,1.26.06,6.36,6.36,0,0,1,.87,0A2,2,0,0,0,19.82,5.75Zm0,24.32a6.43,6.43,0,0,1-2.24-2.21h-.08a11.46,11.46,0,0,1-4.23-.57,9.64,9.64,0,0,1-2.45,1.39A13.31,13.31,0,0,0,19.86,30.07ZM15.54,19.64l1.6-6.79A24,24,0,0,0,14,10a14.4,14.4,0,0,0-6.12,3.27L7.2,15.63c0,.25,0,.5,0,.79a4.12,4.12,0,0,0,.09.83,12.28,12.28,0,0,0,4.36,3.83.79.79,0,0,0,.24,0C13.09,20.55,14.32,20.1,15.54,19.64ZM15.33,6.32a2.39,2.39,0,0,0,.13-.21,8.67,8.67,0,0,0-2.07-1.65A13.13,13.13,0,0,0,6.6,9.25c-.21.27-.13.42.08.61A14,14,0,0,1,8,11.1l0,0a17.15,17.15,0,0,1,5.43-2.55A13,13,0,0,0,15.33,6.32ZM12.2,26.25l-.06-.09a18.9,18.9,0,0,1-.81-3.54,14,14,0,0,1-5.11-4.26c-.54.27-1.09.52-1.65.76-.27.12-.38.27-.28.56s.12.43.18.64a2.44,2.44,0,0,0,0,.39,12.35,12.35,0,0,0,3.17,5.52,9.07,9.07,0,0,0,1.53,1.41A8.83,8.83,0,0,0,12.2,26.25Z"/><path class="cls-2" d="M30,13.41c.18.55.05.84-.49,1s-.78.22-1.16.35c-.49-.5-1.07-1.07-1.7-1.65v0a11.51,11.51,0,0,0-3.26-6.29c-.23-.22-.49-.41-.73-.62a9.78,9.78,0,0,1,1.54-.3,3.65,3.65,0,0,1,.5.28A13.5,13.5,0,0,1,30,13.41Z"/><path class="cls-2" d="M28.49,23.22c.3.24.28.44.09.73a13.29,13.29,0,0,1-6.47,5.46A5.34,5.34,0,0,1,19,27.24a8,8,0,0,1,.44-.69c.22-.33.46-.65.69-1a8.46,8.46,0,0,0,3-2,28.27,28.27,0,0,0,3.64-1.86C27.31,22.25,27.89,22.75,28.49,23.22Z"/><path class="cls-2" d="M27.37,16a.21.21,0,0,1,0,.11,18.79,18.79,0,0,1-.48,3.58c0,.1-.05.19-.08.29-.39.25-.95.6-1.63,1a13.28,13.28,0,0,0,.7-1.28,14.36,14.36,0,0,0,.91-4.27Z"/><path class="cls-3" d="M26.62,13.08v0A20.33,20.33,0,0,0,22.29,10,20.4,20.4,0,0,0,21,6.79a7.76,7.76,0,0,1,1.6-.62c.24.21.5.4.73.62A11.51,11.51,0,0,1,26.62,13.08Z"/><path class="cls-4" d="M26.79,15.35a14.36,14.36,0,0,1-.91,4.27,13.28,13.28,0,0,1-.7,1.28,21.94,21.94,0,0,1-4.53,2c-1.21-1-2.41-2-3.63-3L18.65,13c1-.44,2-.85,3-1.33a1.8,1.8,0,0,1,.4-.15A23.71,23.71,0,0,1,26.79,15.35Z"/><path class="cls-3" d="M23.09,23.61a8.46,8.46,0,0,1-3,2,3.16,3.16,0,0,1,.71-1.17A18.19,18.19,0,0,0,23.09,23.61Z"/><path class="cls-5" d="M21.93,4.8a8.87,8.87,0,0,0-2.11,1,2,2,0,0,1-.6,0,6.36,6.36,0,0,0-.87,0,2.76,2.76,0,0,1-1.26-.06l0,0A13.8,13.8,0,0,0,15.41,4,12.7,12.7,0,0,1,21.93,4.8Z"/><path class="cls-2" d="M17.62,27.86a6.43,6.43,0,0,0,2.24,2.21,13.31,13.31,0,0,1-9-1.39,9.64,9.64,0,0,0,2.45-1.39,11.46,11.46,0,0,0,4.23.57Z"/><path class="cls-4" d="M17.14,12.85l-1.6,6.79c-1.22.46-2.45.91-3.66,1.39a.79.79,0,0,1-.24,0,12.28,12.28,0,0,1-4.36-3.83,4.12,4.12,0,0,1-.09-.83c0-.29,0-.54,0-.79l.63-2.35A14.4,14.4,0,0,1,14,10,24,24,0,0,1,17.14,12.85Z"/><path class="cls-3" d="M15.46,6.11a2.39,2.39,0,0,1-.13.21,13,13,0,0,1-1.88,2.27A17.15,17.15,0,0,0,8,11.14l0,0A14,14,0,0,0,6.68,9.86c-.21-.19-.29-.34-.08-.61a13.13,13.13,0,0,1,6.79-4.79A8.67,8.67,0,0,1,15.46,6.11Z"/><path class="cls-2" d="M12.14,26.16l.06.09a8.83,8.83,0,0,1-3,1.39,9.07,9.07,0,0,1-1.53-1.41,12.35,12.35,0,0,1-3.17-5.52,2.44,2.44,0,0,1,0-.39c.24.05.28.25.38.43a11.75,11.75,0,0,0,6.69,5.45C11.73,26.26,12,26.44,12.14,26.16Z"/><path class="cls-3" d="M12.14,26.16c-.19.28-.41.1-.6,0a11.75,11.75,0,0,1-6.69-5.45c-.1-.18-.14-.38-.38-.43-.06-.21-.11-.43-.18-.64s0-.44.28-.56c.56-.24,1.11-.49,1.65-.76a14,14,0,0,0,5.11,4.26A18.9,18.9,0,0,0,12.14,26.16Z"/></svg>